<?xml version="1.0" encoding="iso-8859-1"?>
<!-- Generator: Adobe Illustrator 18.1.1, SVG Export Plug-In . SVG Version: 6.00 Build 0)  -->
<svg version="1.1" id="Capa_1" xmlns="http://www.w3.org/2000/svg" xmlns:xlink="http://www.w3.org/1999/xlink" x="0px" y="0px"
	 viewBox="0 0 18.785 18.785" style="enable-background:new 0 0 18.785 18.785;" xml:space="preserve">
<g>
	<g>
		<circle style="fill:#030104;" cx="5.849" cy="9.901" r="1.248"/>
		<path style="fill:#030104;" d="M17.993,12.48c-0.419-1.463-1.037-2.941-1.774-4.133c-0.925-1.496-2.037-2.542-3.178-2.542
			l-7.2-0.021c-4.833,0-7.604,13.001-3.988,13.001c2.09,0,2.94-2.737,4.613-3.861c0.768-0.516,1.709-0.892,3.024-0.892
			c1.021,0,1.912,0.341,2.724,0.818c1.877,1.105,3.318,3.888,4.892,3.888C18.874,18.739,18.899,15.642,17.993,12.48z M5.872,12.285
			c-1.338,0-2.423-1.085-2.423-2.422c0-1.335,1.084-2.419,2.423-2.419c1.337,0,2.421,1.084,2.421,2.419
			C8.293,11.2,7.209,12.285,5.872,12.285z M12.775,7.919c0.125-0.396,0.547-0.615,0.939-0.493c0.396,0.125,0.616,0.545,0.493,0.941
			c-0.126,0.396-0.546,0.615-0.941,0.492C12.872,8.737,12.652,8.316,12.775,7.919z M11.937,10.114
			c-0.396-0.123-0.616-0.543-0.491-0.94c0.124-0.394,0.545-0.614,0.94-0.49c0.395,0.123,0.616,0.543,0.491,0.939
			C12.753,10.02,12.331,10.237,11.937,10.114z M13.765,11.316c-0.126,0.396-0.545,0.615-0.941,0.492
			c-0.393-0.122-0.615-0.543-0.492-0.94c0.127-0.395,0.548-0.614,0.939-0.492C13.667,10.501,13.888,10.92,13.765,11.316z
			 M15.173,10.123c-0.126,0.396-0.546,0.615-0.941,0.493c-0.395-0.124-0.614-0.544-0.492-0.941c0.126-0.396,0.547-0.614,0.941-0.493
			C15.077,9.307,15.297,9.727,15.173,10.123z"/>
		<path style="fill:#030104;" d="M9.683,5.871c0.04,0,0.08-0.004,0.121-0.013c0.305-0.066,0.499-0.368,0.432-0.673
			c-0.267-1.23-0.232-2.425-0.037-2.587c0.004,0.001,0.352-0.041,1.321,0.888c0.403,0.388,1.634,1.568,2.661,1.028
			c1.233-0.645,0.924-3.252,0.8-4.036c-0.049-0.309-0.337-0.521-0.647-0.47c-0.309,0.049-0.52,0.339-0.471,0.647
			c0.203,1.281,0.102,2.696-0.207,2.857c-0.003-0.001-0.336,0.133-1.354-0.843C11.583,1.98,10.525,1.12,9.654,1.606
			c-1.091,0.611-0.73,2.875-0.524,3.82C9.188,5.691,9.422,5.871,9.683,5.871z"/>
	</g>
</g>
<g>
</g>
<g>
</g>
<g>
</g>
<g>
</g>
<g>
</g>
<g>
</g>
<g>
</g>
<g>
</g>
<g>
</g>
<g>
</g>
<g>
</g>
<g>
</g>
<g>
</g>
<g>
</g>
<g>
</g>
</svg>
